  0
SECTION
  2
HEADER
  9
$ANGBASE
  50
0.0
  9
$ANGDIR
  70
1
  9
$MEASUREMENT
  70
1
  0
ENDSEC
  0
SECTION
  2
TABLES
  0
TABLE
  2
LTYPE
  70
4
  0
LTYPE
  5
40F
  2
CONTINUOUS
  70
0
  3
Solid line
  72
65
  73
0
  40
0.0
  0
LTYPE
  5
410
  2
DASHDOT
 70
0
  3
Dash Dot ____ _ ____ _
 72
65
 73
4
 40
2.0
 49
1.25
 49
-0.25
 49
0.25
 49
-0.25
  0
LTYPE
  5
411
  2
DASHED
 70
0
  3
Dashed __ __ __ __ __
 72
65
 73
2
 40
0.75
 49
0.5
 49
-0.25
  0
LTYPE
  5
43B
  2
DOTTED
 70
0
  3
Dotted .  .  .  .
 72
65
 73
2
 40
0.2
 49
0.0
 49
-0.2
  0
ENDTAB
  0
TABLE
  2
STYLE
  70
4
  0
STYLE
  2
KICAD
  70
0
  40
0
  41
1
  42
1
  50
0
  71
0
  3
isocp.shx
  0
STYLE
  2
KICADB
  70
0
  40
0
  41
1
  42
1
  50
0
  71
0
  3
isocp.shx
  0
STYLE
  2
KICADI
  70
0
  40
0
  41
1
  42
1
  50
15
  71
0
  3
isocp.shx
  0
STYLE
  2
KICADBI
  70
0
  40
0
  41
1
  42
1
  50
15
  71
0
  3
isocp.shx
  0
ENDTAB
  0
TABLE
  2
LAYER
  70
1
  0
LAYER
  2
BLACK
  70
0
  62
7
  6
CONTINUOUS
  0
ENDTAB
  0
ENDSEC
  0
SECTION
  2
ENTITIES
0
LINE
8
BLACK
6
CONTINUOUS
10
126.5
20
-86.
11
192.5
21
-86.
0
LINE
8
BLACK
6
CONTINUOUS
10
192.5
20
-86.
11
192.5
21
-143.
0
LINE
8
BLACK
6
CONTINUOUS
10
192.5
20
-143.
11
126.5
21
-143.
0
LINE
8
BLACK
6
CONTINUOUS
10
126.5
20
-143.
11
126.5
21
-86.
0
CIRCLE
8
BLACK
10
152.25
20
-101.
40
0.175
0
CIRCLE
8
BLACK
10
154.789999999999992
20
-101.
40
0.175
0
CIRCLE
8
BLACK
10
157.3299999999999841
20
-101.
40
0.175
0
CIRCLE
8
BLACK
10
148.7999999999999829
20
-118.75
40
0.175
0
CIRCLE
8
BLACK
10
146.2599999999999909
20
-118.75
40
0.175
0
CIRCLE
8
BLACK
10
167.75
20
-117.5
40
0.175
0
CIRCLE
8
BLACK
10
167.75
20
-122.5799999999999983
40
0.175
0
CIRCLE
8
BLACK
10
153.4199999999999875
20
-134.25
40
0.175
0
CIRCLE
8
BLACK
10
155.9599999999999795
20
-134.25
40
0.175
0
CIRCLE
8
BLACK
10
158.5
20
-134.25
40
0.175
0
CIRCLE
8
BLACK
10
165.9599999999999795
20
-107.4200000000000017
40
0.175
0
CIRCLE
8
BLACK
10
165.9599999999999795
20
-109.9599999999999937
40
0.175
0
CIRCLE
8
BLACK
10
159.5
20
-112.5
40
0.175
0
CIRCLE
8
BLACK
10
159.5
20
-127.5
40
0.175
0
CIRCLE
8
BLACK
10
146.2599999999999909
20
-126.4499999999999886
40
0.175
0
CIRCLE
8
BLACK
10
148.7999999999999829
20
-126.4499999999999886
40
0.175
0
CIRCLE
8
BLACK
10
151.3400000000000034
20
-126.4499999999999886
40
0.175
0
CIRCLE
8
BLACK
10
171.039999999999992
20
-99.3021829999999994
40
0.175
0
CIRCLE
8
BLACK
10
171.039999999999992
20
-96.7621829999999932
40
0.175
0
CIRCLE
8
BLACK
10
141.5
20
-118.75
40
0.175
0
CIRCLE
8
BLACK
10
159.289999999999992
20
-107.4200000000000017
40
0.175
0
CIRCLE
8
BLACK
10
154.2099999999999795
20
-107.4200000000000017
40
0.175
0
CIRCLE
8
BLACK
10
154.4199999999999875
20
-95.6349999999999909
40
0.175
0
CIRCLE
8
BLACK
10
156.9599999999999795
20
-95.6349999999999909
40
0.175
0
CIRCLE
8
BLACK
10
159.5
20
-95.6349999999999909
40
0.175
0
CIRCLE
8
BLACK
10
162.039999999999992
20
-95.6349999999999909
40
0.175
0
CIRCLE
8
BLACK
10
164.5799999999999841
20
-95.6349999999999909
40
0.175
0
CIRCLE
8
BLACK
10
148.7999999999999829
20
-107.4200000000000017
40
0.175
0
CIRCLE
8
BLACK
10
148.7999999999999829
20
-109.9599999999999937
40
0.175
0
CIRCLE
8
BLACK
10
148.7999999999999829
20
-112.5
40
0.175
0
CIRCLE
8
BLACK
10
171.039999999999992
20
-102.3399999999999892
40
0.175
0
CIRCLE
8
BLACK
10
165.9599999999999795
20
-102.3399999999999892
40
0.175
0
CIRCLE
8
BLACK
10
161.75
20
-102.3399999999999892
40
0.175
0
CIRCLE
8
BLACK
10
161.75
20
-107.4200000000000017
40
0.175
  0
ENDSEC
  0
EOF
