  0
SECTION
  2
HEADER
  9
$ANGBASE
  50
0.0
  9
$ANGDIR
  70
1
  9
$MEASUREMENT
  70
1
  0
ENDSEC
  0
SECTION
  2
TABLES
  0
TABLE
  2
LTYPE
  70
4
  0
LTYPE
  5
40F
  2
CONTINUOUS
  70
0
  3
Solid line
  72
65
  73
0
  40
0.0
  0
LTYPE
  5
410
  2
DASHDOT
 70
0
  3
Dash Dot ____ _ ____ _
 72
65
 73
4
 40
2.0
 49
1.25
 49
-0.25
 49
0.25
 49
-0.25
  0
LTYPE
  5
411
  2
DASHED
 70
0
  3
Dashed __ __ __ __ __
 72
65
 73
2
 40
0.75
 49
0.5
 49
-0.25
  0
LTYPE
  5
43B
  2
DOTTED
 70
0
  3
Dotted .  .  .  .
 72
65
 73
2
 40
0.2
 49
0.0
 49
-0.2
  0
ENDTAB
  0
TABLE
  2
STYLE
  70
4
  0
STYLE
  2
KICAD
  70
0
  40
0
  41
1
  42
1
  50
0
  71
0
  3
isocp.shx
  0
STYLE
  2
KICADB
  70
0
  40
0
  41
1
  42
1
  50
0
  71
0
  3
isocp.shx
  0
STYLE
  2
KICADI
  70
0
  40
0
  41
1
  42
1
  50
15
  71
0
  3
isocp.shx
  0
STYLE
  2
KICADBI
  70
0
  40
0
  41
1
  42
1
  50
15
  71
0
  3
isocp.shx
  0
ENDTAB
  0
TABLE
  2
LAYER
  70
1
  0
LAYER
  2
BLACK
  70
0
  62
7
  6
CONTINUOUS
  0
ENDTAB
  0
ENDSEC
  0
SECTION
  2
ENTITIES
0
LINE
8
BLACK
6
CONTINUOUS
10
117.25
20
-64.25
11
183.25
21
-64.25
0
LINE
8
BLACK
6
CONTINUOUS
10
183.25
20
-64.25
11
183.25
21
-121.25
0
LINE
8
BLACK
6
CONTINUOUS
10
183.25
20
-121.25
11
117.25
21
-121.25
0
LINE
8
BLACK
6
CONTINUOUS
10
117.25
20
-121.25
11
117.25
21
-64.25
0
CIRCLE
8
BLACK
10
136.25
20
-83.25
40
0.175
0
CIRCLE
8
BLACK
10
136.25
20
-88.3299999999999983
40
0.175
0
CIRCLE
8
BLACK
10
138.289999999999992
20
-93.4099999999999966
40
0.175
0
CIRCLE
8
BLACK
10
138.289999999999992
20
-108.4099999999999966
40
0.175
0
CIRCLE
8
BLACK
10
126.75
20
-80.212182999999996
40
0.175
0
CIRCLE
8
BLACK
10
126.75
20
-77.6721829999999898
40
0.175
0
CIRCLE
8
BLACK
10
138.75
20
-88.3299999999999983
40
0.175
0
CIRCLE
8
BLACK
10
143.8299999999999841
20
-88.3299999999999983
40
0.175
0
CIRCLE
8
BLACK
10
151.5799999999999841
20
-107.2099999999999937
40
0.175
0
CIRCLE
8
BLACK
10
149.039999999999992
20
-107.2099999999999937
40
0.175
0
CIRCLE
8
BLACK
10
146.5
20
-107.2099999999999937
40
0.175
0
CIRCLE
8
BLACK
10
145.5799999999999841
20
-81.9599999999999937
40
0.175
0
CIRCLE
8
BLACK
10
143.039999999999992
20
-81.9599999999999937
40
0.175
0
CIRCLE
8
BLACK
10
140.5
20
-81.9599999999999937
40
0.175
0
CIRCLE
8
BLACK
10
163.539999999999992
20
-95.1599999999999966
40
0.175
0
CIRCLE
8
BLACK
10
171.039999999999992
20
-95.1599999999999966
40
0.175
0
CIRCLE
8
BLACK
10
171.039999999999992
20
-109.9099999999999966
40
0.175
0
CIRCLE
8
BLACK
10
156.039999999999992
20
-109.9099999999999966
40
0.175
0
CIRCLE
8
BLACK
10
130.039999999999992
20
-98.3699999999999903
40
0.175
0
CIRCLE
8
BLACK
10
130.039999999999992
20
-103.4499999999999886
40
0.175
0
CIRCLE
8
BLACK
10
148.789999999999992
20
-88.3299999999999983
40
0.175
0
CIRCLE
8
BLACK
10
148.789999999999992
20
-90.8699999999999903
40
0.175
0
CIRCLE
8
BLACK
10
148.789999999999992
20
-93.4099999999999966
40
0.175
0
CIRCLE
8
BLACK
10
174.789999999999992
20
-100.9099999999999966
40
0.175
0
CIRCLE
8
BLACK
10
131.789999999999992
20
-88.3299999999999983
40
0.175
0
CIRCLE
8
BLACK
10
131.789999999999992
20
-90.8699999999999903
40
0.175
0
CIRCLE
8
BLACK
10
148.789999999999992
20
-100.9099999999999966
40
0.175
0
CIRCLE
8
BLACK
10
171.289999999999992
20
-100.9099999999999966
40
0.175
0
CIRCLE
8
BLACK
10
126.75
20
-83.25
40
0.175
0
CIRCLE
8
BLACK
10
131.8299999999999841
20
-83.25
40
0.175
0
CIRCLE
8
BLACK
10
144.289999999999992
20
-114.9099999999999966
40
0.175
0
CIRCLE
8
BLACK
10
141.75
20
-114.9099999999999966
40
0.175
0
CIRCLE
8
BLACK
10
139.2099999999999795
20
-114.9099999999999966
40
0.175
0
CIRCLE
8
BLACK
10
143.3700000000000045
20
-77.6599999999999966
40
0.175
0
CIRCLE
8
BLACK
10
140.8299999999999841
20
-77.6599999999999966
40
0.175
0
CIRCLE
8
BLACK
10
138.289999999999992
20
-77.6599999999999966
40
0.175
0
CIRCLE
8
BLACK
10
135.75
20
-77.6599999999999966
40
0.175
0
CIRCLE
8
BLACK
10
133.210000000000008
20
-77.6599999999999966
40
0.175
  0
ENDSEC
  0
EOF
